<svg width="108" height="36" fill="none" xmlns="http://www.w3.org/2000/svg"><path d="M13.192 26l-5.508-9.612H6.28V26H.124V.548h10.512c2.016 0 3.72.348 5.112 1.044 1.392.696 2.436 1.656 3.132 2.88.696 1.2 1.044 2.58 1.044 4.14 0 1.848-.516 3.42-1.548 4.716-1.008 1.296-2.484 2.184-4.428 2.664L19.996 26h-6.804zM6.28 12.176h3.816c1.224 0 2.124-.264 2.7-.792.576-.552.864-1.356.864-2.412 0-1.008-.3-1.8-.9-2.376-.576-.576-1.464-.864-2.664-.864H6.28v6.444z" fill="#A92A1D"/><path d="M34.927.296c3.192 0 5.82.78 7.884 2.34 2.064 1.56 3.348 3.672 3.852 6.336h-6.516a4.917 4.917 0 00-1.98-2.16c-.888-.552-1.956-.828-3.204-.828-1.944 0-3.504.66-4.68 1.98-1.176 1.296-1.764 3.06-1.764 5.292 0 2.424.612 4.284 1.836 5.58 1.248 1.296 3.012 1.944 5.292 1.944 1.464 0 2.748-.396 3.852-1.188 1.104-.816 1.884-1.968 2.34-3.456h-7.776v-4.428h12.924v6.084c-.48 1.488-1.248 2.868-2.304 4.14-1.056 1.272-2.412 2.304-4.068 3.096-1.632.792-3.504 1.188-5.616 1.188-2.568 0-4.812-.54-6.732-1.62a11.46 11.46 0 01-4.464-4.608c-1.032-1.968-1.548-4.212-1.548-6.732 0-2.52.516-4.764 1.548-6.732 1.056-1.968 2.532-3.492 4.428-4.572C30.15.848 32.383.296 34.927.296zm20.15 5.616L59.9 18.224l4.5-12.312h6.804L58.677 35.576h-6.768l4.716-10.332L48.2 5.912h6.876zm44.2-.216c2.472 0 4.416.768 5.832 2.304 1.416 1.512 2.124 3.624 2.124 6.336V26h-6.12V15.056c0-1.272-.348-2.256-1.044-2.952-.672-.72-1.596-1.08-2.772-1.08-1.224 0-2.196.384-2.916 1.152-.696.744-1.044 1.8-1.044 3.168V26h-6.156V15.056c0-1.272-.336-2.256-1.008-2.952-.672-.72-1.596-1.08-2.772-1.08-1.224 0-2.196.372-2.916 1.116-.72.744-1.08 1.812-1.08 3.204V26h-6.156V5.912h6.156v3.42a6.023 6.023 0 012.412-2.664c1.104-.648 2.388-.972 3.852-.972 1.536 0 2.892.36 4.068 1.08 1.176.696 2.064 1.704 2.664 3.024a8.094 8.094 0 012.844-2.988 7.616 7.616 0 014.032-1.116z" fill="#fff"/></svg>